<?xml version="1.0" encoding="utf-8"?>
<svg xmlns="http://www.w3.org/2000/svg" xmlns:xlink="http://www.w3.org/1999/xlink" style="margin: auto; background: rgb(1, 44, 50); display: block; z-index: 1; position: relative; shape-rendering: auto;" width="1920" height="898" preserveAspectRatio="xMidYMid" viewBox="0 0 1920 898">
<g transform=""><path d="M -100 531.855 C -65.2284 531.735 -63.936 529.562 -31.61 529.562 S 3.97204 539.372 36.77 539.372 S 72.3652 533.048 105.16 533.048 S 140.135 532.828 173.55 532.828 S 209.148 533.456 241.94 533.456 S 276.308 530.018 310.32 530.018 S 345.928 538.765 378.71 538.765 S 415.005 541.517 447.1 541.517 S 482.912 522.04 515.48 522.04 S 551.364 530.588 583.87 530.588 S 619.419 530.144 652.26 530.144 S 687.602 534.549 720.65 534.549 S 755.518 524.938 789.03 524.938 S 824.511 541.401 857.42 541.401 S 892.972 535.487 925.81 535.487 S 961.4 530.053 994.19 530.053 S 1029.63 534.991 1062.58 534.991 S 1098.26 530.629 1130.97 530.629 S 1166.51 529.144 1199.35 529.144 S 1234.91 532.417 1267.74 532.417 S 1303.29 536.201 1336.13 536.201 S 1372.01 536.554 1404.52 536.554 S 1439.57 534.05 1472.9 534.05 S 1507.5 530.678 1541.29 530.678 S 1576.88 526.057 1609.68 526.057 S 1645.05 533.842 1678.06 533.842 S 1713.75 534.751 1746.45 534.751 S 1782.5 523.328 1814.84 523.328 S 1849.38 524.224 1883.23 524.224 S 1917.71 525.609 1951.61 525.609 S 1987.5 525.86 2020 525.86 S 2055.21 540.287 2088.39 540.287 L 2020 898 L -100 898 Z" fill="#0f3135" stroke-width="0" transform="translate(4.14558 0)">
  <animate attributeName="d" dur="25s" repeatCount="indefinite" values="M-100 535.3C-65.18 535.14 -63.87 527.82 -31.61 527.82S4.5 543.09 36.77 543.09S71.89 529.81 105.16 529.81S140.39 536.55 173.55 536.55S208.88 542.33 241.94 542.33S276.4 527.84 310.32 527.84S346.54 539.94 378.71 539.94S415.08 540.47 447.1 540.47S483.44 521.97 515.48 521.97S551.76 526.29 583.87 526.29S619.45 535.67 652.26 535.67S687.36 531.46 720.65 531.46S755.54 525.58 789.03 525.58S823.93 542.43 857.42 542.43S893.54 531.07 925.81 531.07S961.77 526.52 994.19 526.52S1029.73 533.86 1062.58 533.86S1098.54 525.49 1130.97 525.49S1166.11 531.3 1199.35 531.3S1234.62 541.04 1267.74 541.04S1303.77 532.29 1336.13 532.29S1371.98 536.58 1404.52 536.58S1438.77 527.86 1472.9 527.86S1507.5 532.2 1541.29 532.2S1577.12 526.95 1609.68 526.95S1645.48 528.07 1678.06 528.07S1714.04 533.29 1746.45 533.29S1782.44 524.74 1814.84 524.74S1849.55 526.82 1883.23 526.82S1917.66 521.97 1951.61 521.97S1987.35 528.28 2020 528.28S2055.43 538.07 2088.39 538.07L2020 898 L-100 898 Z;M-100 527.47C-65.29 527.4 -64.02 531.78 -31.61 531.78S3.3 534.64 36.77 534.64S72.97 537.17 105.16 537.17S139.81 528.09 173.55 528.09S209.49 522.16 241.94 522.16S276.19 532.79 310.32 532.79S345.15 537.27 378.71 537.27S414.91 542.85 447.1 542.85S482.24 522.13 515.48 522.13S550.86 536.06 583.87 536.06S619.38 523.11 652.26 523.11S687.91 538.48 720.65 538.48S755.49 524.12 789.03 524.12S825.25 540.09 857.42 540.09S892.25 541.11 925.81 541.11S960.93 534.55 994.19 534.55S1029.5 536.43 1062.58 536.43S1097.9 537.17 1130.97 537.17S1167.03 526.4 1199.35 526.4S1235.27 521.44 1267.74 521.44S1302.67 541.18 1336.13 541.18S1372.05 536.52 1404.52 536.52S1440.59 541.93 1472.9 541.93S1507.5 528.74 1541.29 528.74S1576.58 524.92 1609.68 524.92S1644.5 541.19 1678.06 541.19S1713.38 536.61 1746.45 536.61S1782.57 521.53 1814.84 521.53S1849.17 520.92 1883.23 520.92S1917.78 530.24 1951.61 530.24S1987.7 522.78 2020 522.78S2054.92 543.11 2088.39 543.11L2020 898 L-100 898 Z;M-100 535.3C-65.18 535.14 -63.87 527.82 -31.61 527.82S4.5 543.09 36.77 543.09S71.89 529.81 105.16 529.81S140.39 536.55 173.55 536.55S208.88 542.33 241.94 542.33S276.4 527.84 310.32 527.84S346.54 539.94 378.71 539.94S415.08 540.47 447.1 540.47S483.44 521.97 515.48 521.97S551.76 526.29 583.87 526.29S619.45 535.67 652.26 535.67S687.36 531.46 720.65 531.46S755.54 525.58 789.03 525.58S823.93 542.43 857.42 542.43S893.54 531.07 925.81 531.07S961.77 526.52 994.19 526.52S1029.73 533.86 1062.58 533.86S1098.54 525.49 1130.97 525.49S1166.11 531.3 1199.35 531.3S1234.62 541.04 1267.74 541.04S1303.77 532.29 1336.13 532.29S1371.98 536.58 1404.52 536.58S1438.77 527.86 1472.9 527.86S1507.5 532.2 1541.29 532.2S1577.12 526.95 1609.68 526.95S1645.48 528.07 1678.06 528.07S1714.04 533.29 1746.45 533.29S1782.44 524.74 1814.84 524.74S1849.55 526.82 1883.23 526.82S1917.66 521.97 1951.61 521.97S1987.35 528.28 2020 528.28S2055.43 538.07 2088.39 538.07L2020 898 L-100 898 Z"></animate>
  <animateTransform attributeName="transform" type="translate" dur="25s" begin="0s" repeatCount="indefinite" values="0;10;0" calcMode="spline" keySplines="0.3 0 0.7 1;0.3 0 0.7 1"></animateTransform>
</path><path d="M -100 555.086 C -62.908 546.102 -63.4605 555.876 -29.8 555.876 S 6.28221 548.557 40.4 548.557 S 76.4698 555.162 110.6 555.162 S 146.322 560.074 180.79 560.074 S 216.613 560.792 250.99 560.792 S 288.134 554.07 321.19 554.07 S 358.281 567.501 391.39 567.501 S 427.222 561.178 461.59 561.178 S 498.564 554.774 531.79 554.774 S 568.431 562.183 601.99 562.183 S 637.868 556.858 672.19 556.858 S 708.536 558.07 742.38 558.07 S 779.027 557.313 812.58 557.313 S 847.893 558.191 882.78 558.191 S 918.675 566.281 952.98 566.281 S 988.817 550.957 1023.18 550.957 S 1058.96 562.502 1093.38 562.502 S 1129.21 563.765 1163.58 563.765 S 1200.26 550.723 1233.77 550.723 S 1270.13 553.495 1303.97 553.495 S 1340.65 560.25 1374.17 560.25 S 1409.86 552.24 1444.37 552.24 S 1480.01 561.843 1514.57 561.843 S 1551.04 549.428 1584.77 549.428 S 1620.73 560.851 1654.97 560.851 S 1691.45 560.469 1725.17 560.469 S 1761.37 550.686 1795.36 550.686 S 1831.33 563.666 1865.56 563.666 S 1901.94 563.599 1935.76 563.599 S 1972.73 546.988 2005.96 546.988 S 2041.9 557.112 2076.16 557.112 L 2020 898 L -100 898 Z" fill="#254346" stroke-width="0" transform="translate(9.74155 0)">
  <animate attributeName="d" dur="22.5s" repeatCount="indefinite" values="M-100 561.23C-63.42 543.62 -64.2 568.54 -29.8 568.54S6.14 546.73 40.4 546.73S77.06 557.16 110.6 557.16S145.86 566.26 180.79 566.26S217.63 549.77 250.99 549.77S287.97 546.54 321.19 546.54S357.89 564.6 391.39 564.6S427.13 561.47 461.59 561.47S498.45 549.1 531.79 549.1S568.04 556.31 601.99 556.31S638.7 548.41 672.19 548.41S707.91 570.08 742.38 570.08S779.66 547.6 812.58 547.6S848 560.95 882.78 560.95S918.44 564.29 952.98 564.29S988.39 545.66 1023.18 545.66S1059.37 567.43 1093.38 567.43S1129.47 567.1 1163.58 567.1S1199.37 551.47 1233.77 551.47S1269.25 566.5 1303.97 566.5S1340 553.26 1374.17 553.26S1410.16 556.62 1444.37 556.62S1480.13 549.47 1514.57 549.47S1549.97 559.49 1584.77 559.49S1621.85 568.68 1654.97 568.68S1691.12 562.14 1725.17 562.14S1762.23 546.91 1795.36 546.91S1832.52 561.12 1865.56 561.12S1902.62 565.22 1935.76 565.22S1972.83 547.45 2005.96 547.45S2041.86 556.87 2076.16 556.87L2020 898 L-100 898 Z;M-100 552.59C-62.7 547.11 -63.16 550.73 -29.8 550.73S6.34 549.3 40.4 549.3S76.23 554.35 110.6 554.35S146.51 557.56 180.79 557.56S216.2 565.27 250.99 565.27S288.2 557.13 321.19 557.13S358.44 568.68 391.39 568.68S427.26 561.06 461.59 561.06S498.61 557.08 531.79 557.08S568.59 564.57 601.99 564.57S637.53 560.29 672.19 560.29S708.79 553.19 742.38 553.19S778.77 561.26 812.58 561.26S847.85 557.07 882.78 557.07S918.77 567.09 952.98 567.09S988.99 553.11 1023.18 553.11S1058.79 560.5 1093.38 560.5S1129.11 562.41 1163.58 562.41S1200.62 550.42 1233.77 550.42S1270.49 548.21 1303.97 548.21S1340.92 563.09 1374.17 563.09S1409.74 550.46 1444.37 550.46S1479.96 566.87 1514.57 566.87S1551.47 545.34 1584.77 545.34S1620.28 557.67 1654.97 557.67S1691.59 559.79 1725.17 559.79S1761.02 552.22 1795.36 552.22S1830.84 564.7 1865.56 564.7S1901.67 562.94 1935.76 562.94S1972.69 546.8 2005.96 546.8S2041.91 557.21 2076.16 557.21L2020 898 L-100 898 Z;M-100 561.23C-63.42 543.62 -64.2 568.54 -29.8 568.54S6.14 546.73 40.4 546.73S77.06 557.16 110.6 557.16S145.86 566.26 180.79 566.26S217.63 549.77 250.99 549.77S287.97 546.54 321.19 546.54S357.89 564.6 391.39 564.6S427.13 561.47 461.59 561.47S498.45 549.1 531.79 549.1S568.04 556.31 601.99 556.31S638.7 548.41 672.19 548.41S707.91 570.08 742.38 570.08S779.66 547.6 812.58 547.6S848 560.95 882.78 560.95S918.44 564.29 952.98 564.29S988.39 545.66 1023.18 545.66S1059.37 567.43 1093.38 567.43S1129.47 567.1 1163.58 567.1S1199.37 551.47 1233.77 551.47S1269.25 566.5 1303.97 566.5S1340 553.26 1374.17 553.26S1410.16 556.62 1444.37 556.62S1480.13 549.47 1514.57 549.47S1549.97 559.49 1584.77 559.49S1621.85 568.68 1654.97 568.68S1691.12 562.14 1725.17 562.14S1762.23 546.91 1795.36 546.91S1832.52 561.12 1865.56 561.12S1902.62 565.22 1935.76 565.22S1972.83 547.45 2005.96 547.45S2041.86 556.87 2076.16 556.87L2020 898 L-100 898 Z"></animate>
  <animateTransform attributeName="transform" type="translate" dur="22.5s" begin="-2.25s" repeatCount="indefinite" values="0;10;0" calcMode="spline" keySplines="0.3 0 0.7 1;0.3 0 0.7 1"></animateTransform>
</path><path d="M -100 586.898 C -62.626 584.02 -61.9285 584.732 -27.89 584.732 S 9.81155 586.748 44.22 586.748 S 81.0814 581.533 116.33 581.533 S 152.515 575.92 188.44 575.92 S 225.808 574.996 260.54 574.996 S 296.842 586.428 332.65 586.428 S 368.98 578.348 404.76 578.348 S 441.768 585.238 476.87 585.238 S 513.613 575.118 548.98 575.118 S 585.203 569.877 621.09 569.877 S 657.413 595.8 693.2 595.8 S 729.823 576.259 765.31 576.259 S 803.237 579.703 837.41 579.703 S 874.704 576.811 909.52 576.811 S 945.682 577.044 981.63 577.044 S 1018.28 586.07 1053.74 586.07 S 1091.64 582.288 1125.85 582.288 S 1163.44 567.613 1197.96 567.613 S 1235.14 595.43 1270.07 595.43 S 1307.34 576.704 1342.18 576.704 S 1378.73 583.896 1414.29 583.896 S 1450.81 586.629 1486.39 586.629 S 1523.35 582.849 1558.5 582.849 S 1595.71 586.299 1630.61 586.299 S 1668.27 591.092 1702.72 591.092 S 1740.1 573.926 1774.83 573.926 S 1812.36 572.63 1846.94 572.63 S 1883.77 571.542 1919.05 571.542 S 1957.17 589.552 1991.16 589.552 S 2028.29 580.813 2063.27 580.813 L 2020 898 L -100 898 Z" fill="#3b5658" stroke-width="0" transform="translate(5.71303 0)">
  <animate attributeName="d" dur="20s" repeatCount="indefinite" values="M-100 594.27C-63.12 595.04 -62.28 597.14 -27.89 597.14S8.7 571.11 44.22 571.11S82.44 595.47 116.33 595.47S152.8 585.8 188.44 585.8S226.73 576.64 260.54 576.64S296.7 581.83 332.65 581.83S370.31 588.57 404.76 588.57S441.55 574.75 476.87 574.75S514.05 578.51 548.98 578.51S587.17 583.52 621.09 583.52S659.19 574.88 693.2 574.88S730.64 577.96 765.31 577.96S802.04 583.18 837.41 583.18S874.78 566.94 909.52 566.94S946.3 587.01 981.63 587.01S1018.74 586.08 1053.74 586.08S1091.35 576.93 1125.85 576.93S1163.79 576.61 1197.96 576.61S1235.16 576.42 1270.07 576.42S1308.35 586.48 1342.18 586.48S1378.79 582.67 1414.29 582.67S1451.78 569.3 1486.39 569.3S1524.09 585.31 1558.5 585.31S1594.79 585.34 1630.61 585.34S1668.7 594.94 1702.72 594.94S1741 586.78 1774.83 586.78S1812.37 586.52 1846.94 586.52S1883.71 582.99 1919.05 582.99S1955.55 596.24 1991.16 596.24S2027.82 582.2 2063.27 582.2L2020 898 L-100 898 Z;M-100 586.51C-62.6 583.44 -61.91 584.08 -27.89 584.08S9.87 587.57 44.22 587.57S81.01 580.8 116.33 580.8S152.5 575.4 188.44 575.4S225.76 574.91 260.54 574.91S296.85 586.67 332.65 586.67S368.91 577.81 404.76 577.81S441.78 585.79 476.87 585.79S513.59 574.94 548.98 574.94S585.1 569.16 621.09 569.16S657.32 596.9 693.2 596.9S729.78 576.17 765.31 576.17S803.3 579.52 837.41 579.52S874.7 577.33 909.52 577.33S945.65 576.52 981.63 576.52S1018.26 586.07 1053.74 586.07S1091.66 582.57 1125.85 582.57S1163.42 567.14 1197.96 567.14S1235.14 596.43 1270.07 596.43S1307.29 576.19 1342.18 576.19S1378.73 583.96 1414.29 583.96S1450.76 587.54 1486.39 587.54S1523.31 582.72 1558.5 582.72S1595.76 586.35 1630.61 586.35S1668.25 590.89 1702.72 590.89S1740.05 573.25 1774.83 573.25S1812.36 571.9 1846.94 571.9S1883.77 570.94 1919.05 570.94S1957.26 589.2 1991.16 589.2S2028.31 580.74 2063.27 580.74L2020 898 L-100 898 Z;M-100 594.27C-63.12 595.04 -62.28 597.14 -27.89 597.14S8.7 571.11 44.22 571.11S82.44 595.47 116.33 595.47S152.8 585.8 188.44 585.8S226.73 576.64 260.54 576.64S296.7 581.83 332.65 581.83S370.31 588.57 404.76 588.57S441.55 574.75 476.87 574.75S514.05 578.51 548.98 578.51S587.17 583.52 621.09 583.52S659.19 574.88 693.2 574.88S730.64 577.96 765.31 577.96S802.04 583.18 837.41 583.18S874.78 566.94 909.52 566.94S946.3 587.01 981.63 587.01S1018.74 586.08 1053.74 586.08S1091.35 576.93 1125.85 576.93S1163.79 576.61 1197.96 576.61S1235.16 576.42 1270.07 576.42S1308.35 586.48 1342.18 586.48S1378.79 582.67 1414.29 582.67S1451.78 569.3 1486.39 569.3S1524.09 585.31 1558.5 585.31S1594.79 585.34 1630.61 585.34S1668.7 594.94 1702.72 594.94S1741 586.78 1774.83 586.78S1812.37 586.52 1846.94 586.52S1883.71 582.99 1919.05 582.99S1955.55 596.24 1991.16 596.24S2027.82 582.2 2063.27 582.2L2020 898 L-100 898 Z"></animate>
  <animateTransform attributeName="transform" type="translate" dur="20s" begin="-4s" repeatCount="indefinite" values="0;10;0" calcMode="spline" keySplines="0.3 0 0.7 1;0.3 0 0.7 1"></animateTransform>
</path><path d="M -100 601.141 C -62.0719 604.951 -61.8534 606.578 -25.87 606.578 S 11.7449 597.649 48.25 597.649 S 86.754 616.469 122.38 616.469 S 160.578 592.618 196.5 592.618 S 234.286 610.036 270.63 610.036 S 309.452 610.52 344.76 610.52 S 382.519 612.775 418.88 612.775 S 457.288 594.048 493.01 594.048 S 531.502 607.714 567.13 607.714 S 605.044 606.537 641.26 606.537 S 679.427 612.588 715.38 612.588 S 753.008 608.523 789.51 608.523 S 827.257 613.612 863.64 613.612 S 901.364 599.413 937.76 599.413 S 975.878 621.194 1011.89 621.194 S 1050.62 590.893 1086.01 590.893 S 1124.1 611.36 1160.14 611.36 S 1198.07 594.36 1234.27 594.36 S 1272.01 612.839 1308.39 612.839 S 1346.17 606.028 1382.52 606.028 S 1420.56 616.614 1456.64 616.614 S 1494.77 595.387 1530.77 595.387 S 1568.44 605.795 1604.9 605.795 S 1643.35 608.309 1679.02 608.309 S 1717.33 615.122 1753.15 615.122 S 1792.36 606.429 1827.27 606.429 S 1865.16 604.761 1901.4 604.761 S 1940.16 591.988 1975.52 591.988 S 2013.74 608.9 2049.65 608.9 L 2020 898 L -100 898 Z" fill="#51696b" stroke-width="0" transform="translate(0.240897 0)">
  <animate attributeName="d" dur="17.5s" repeatCount="indefinite" values="M-100 592.12C-62.9 606 -62.09 602.36 -25.87 602.36S11.39 607.56 48.25 607.56S87.15 613.28 122.38 613.28S160.66 596.65 196.5 596.65S234.6 602.48 270.63 602.48S309.73 599.03 344.76 599.03S382.73 614.56 418.88 614.56S457.53 594.84 493.01 594.84S530.71 609.55 567.13 609.55S604.54 620.09 641.26 620.09S679.53 604.41 715.38 604.41S752.54 609.12 789.51 609.12S827.89 606.53 863.64 606.53S901.59 602.01 937.76 602.01S975.24 623.01 1011.89 623.01S1050.48 590.26 1086.01 590.26S1125.19 618.35 1160.14 618.35S1197.73 599.03 1234.27 599.03S1271.72 606.05 1308.39 606.05S1345.8 594.79 1382.52 594.79S1420.84 623.1 1456.64 623.1S1494.13 596.02 1530.77 596.02S1569.03 604.9 1604.9 604.9S1642.54 608.35 1679.02 608.35S1717.78 607.88 1753.15 607.88S1792.43 603.04 1827.27 603.04S1865.61 589.65 1901.4 589.65S1940.63 593.3 1975.52 593.3S2013.19 609.25 2049.65 609.25L2020 898 L-100 898 Z;M-100 609.66C-61.29 603.96 -61.63 610.56 -25.87 610.56S12.08 588.29 48.25 588.29S86.38 619.48 122.38 619.48S160.5 588.81 196.5 588.81S233.99 617.17 270.63 617.17S309.19 621.37 344.76 621.37S382.32 611.09 418.88 611.09S457.06 593.3 493.01 593.3S532.25 605.98 567.13 605.98S605.52 593.74 641.26 593.74S679.33 620.31 715.38 620.31S753.45 607.96 789.51 607.96S826.66 620.3 863.64 620.3S901.15 596.96 937.76 596.96S976.48 619.48 1011.89 619.48S1050.75 591.49 1086.01 591.49S1123.08 604.76 1160.14 604.76S1198.4 589.95 1234.27 589.95S1272.28 619.25 1308.39 619.25S1346.51 616.64 1382.52 616.64S1420.29 610.49 1456.64 610.49S1495.37 594.79 1530.77 594.79S1567.89 606.64 1604.9 606.64S1644.11 608.27 1679.02 608.27S1716.91 621.96 1753.15 621.96S1792.29 609.63 1827.27 609.63S1864.73 619.03 1901.4 619.03S1939.71 590.75 1975.52 590.75S2014.26 608.57 2049.65 608.57L2020 898 L-100 898 Z;M-100 592.12C-62.9 606 -62.09 602.36 -25.87 602.36S11.39 607.56 48.25 607.56S87.15 613.28 122.38 613.28S160.66 596.65 196.5 596.65S234.6 602.48 270.63 602.48S309.73 599.03 344.76 599.03S382.73 614.56 418.88 614.56S457.53 594.84 493.01 594.84S530.71 609.55 567.13 609.55S604.54 620.09 641.26 620.09S679.53 604.41 715.38 604.41S752.54 609.12 789.51 609.12S827.89 606.53 863.64 606.53S901.59 602.01 937.76 602.01S975.24 623.01 1011.89 623.01S1050.48 590.26 1086.01 590.26S1125.19 618.35 1160.14 618.35S1197.73 599.03 1234.27 599.03S1271.72 606.05 1308.39 606.05S1345.8 594.79 1382.52 594.79S1420.84 623.1 1456.64 623.1S1494.13 596.02 1530.77 596.02S1569.03 604.9 1604.9 604.9S1642.54 608.35 1679.02 608.35S1717.78 607.88 1753.15 607.88S1792.43 603.04 1827.27 603.04S1865.61 589.65 1901.4 589.65S1940.63 593.3 1975.52 593.3S2013.19 609.25 2049.65 609.25L2020 898 L-100 898 Z"></animate>
  <animateTransform attributeName="transform" type="translate" dur="17.5s" begin="-5.25s" repeatCount="indefinite" values="0;10;0" calcMode="spline" keySplines="0.3 0 0.7 1;0.3 0 0.7 1"></animateTransform>
</path><path d="M -100 612.26 C -61.5188 617.024 -60.1146 630.498 -23.74 630.498 S 14.558 632.986 52.52 632.986 S 91.7241 628.569 128.78 628.569 S 168.85 629.786 205.04 629.786 S 243.365 643.118 281.29 643.118 S 320.274 617.907 357.55 617.907 S 396.243 637.464 433.81 637.464 S 473.791 631.652 510.07 631.652 S 550.065 642.617 586.33 642.617 S 626.031 629.958 662.59 629.958 S 702.519 646.361 738.85 646.361 S 778.367 629.001 815.11 629.001 S 855.196 633.682 891.37 633.682 S 931.128 621.1 967.63 621.1 S 1007.09 631.286 1043.88 631.286 S 1083.63 623.708 1120.14 623.708 S 1159.4 630.064 1196.4 630.064 S 1236.27 633.691 1272.66 633.691 S 1312.45 647.046 1348.92 647.046 S 1388.23 625.785 1425.18 625.785 S 1464.3 631.071 1501.44 631.071 S 1539.64 622.913 1577.7 622.913 S 1617.48 623.837 1653.96 623.837 S 1693.28 626.112 1730.22 626.112 S 1768.55 640.483 1806.47 640.483 S 1846.04 628.379 1882.73 628.379 S 1921.1 647.611 1958.99 647.611 S 1999.21 624.987 2035.25 624.987 L 2020 898 L -100 898 Z" fill="#677d7f" stroke-width="0" transform="translate(9.4515 0)">
  <animate attributeName="d" dur="15s" repeatCount="indefinite" values="M-100 612.06C-61.63 617.39 -59.99 631.59 -23.74 631.59S14.56 634.16 52.52 634.16S91.8 629.48 128.78 629.48S168.88 629.27 205.04 629.27S243.3 642.86 281.29 642.86S320.21 617.96 357.55 617.96S396.22 636.53 433.81 636.53S473.9 632.11 510.07 632.11S550.1 643.35 586.33 643.35S626.04 631.31 662.59 631.31S702.56 646.74 738.85 646.74S778.34 628.97 815.11 628.97S855.27 633.66 891.37 633.66S931.16 621.76 967.63 621.76S1007.19 631.35 1043.88 631.35S1083.65 623.49 1120.14 623.49S1159.4 629.74 1196.4 629.74S1236.26 635.3 1272.66 635.3S1312.44 649.63 1348.92 649.63S1388.25 625.29 1425.18 625.29S1464.25 631.11 1501.44 631.11S1539.62 622.09 1577.7 622.09S1617.52 622.17 1653.96 622.17S1693.36 626.17 1730.22 626.17S1768.46 640.46 1806.47 640.46S1846.03 628.52 1882.73 628.52S1921.03 648.12 1958.99 648.12S1999.27 625.12 2035.25 625.12L2020 898 L-100 898 Z;M-100 615.06C-59.96 611.9 -61.86 615.2 -23.74 615.2S14.53 616.54 52.52 616.54S90.66 615.81 128.78 615.81S168.43 637.02 205.04 637.02S244.28 646.73 281.29 646.73S321.17 617.17 357.55 617.17S396.57 650.55 433.81 650.55S472.26 625.24 510.07 625.24S549.57 632.35 586.33 632.35S625.9 611.01 662.59 611.01S701.95 641.05 738.85 641.05S778.74 629.44 815.11 629.44S854.16 633.99 891.37 633.99S930.68 611.85 967.63 611.85S1005.76 630.39 1043.88 630.39S1083.42 626.77 1120.14 626.77S1159.37 634.61 1196.4 634.61S1236.43 611.15 1272.66 611.15S1312.52 610.83 1348.92 610.83S1388.01 632.72 1425.18 632.72S1465.01 630.52 1501.44 630.52S1539.91 634.44 1577.7 634.44S1616.94 647.19 1653.96 647.19S1692.15 625.3 1730.22 625.3S1769.85 640.81 1806.47 640.81S1846.11 626.41 1882.73 626.41S1922.11 640.48 1958.99 640.48S1998.33 623.12 2035.25 623.12L2020 898 L-100 898 Z;M-100 612.06C-61.63 617.39 -59.99 631.59 -23.74 631.59S14.56 634.16 52.52 634.16S91.8 629.48 128.78 629.48S168.88 629.27 205.04 629.27S243.3 642.86 281.29 642.86S320.21 617.96 357.55 617.96S396.22 636.53 433.81 636.53S473.9 632.11 510.07 632.11S550.1 643.35 586.33 643.35S626.04 631.31 662.59 631.31S702.56 646.74 738.85 646.74S778.34 628.97 815.11 628.97S855.27 633.66 891.37 633.66S931.16 621.76 967.63 621.76S1007.19 631.35 1043.88 631.35S1083.65 623.49 1120.14 623.49S1159.4 629.74 1196.4 629.74S1236.26 635.3 1272.66 635.3S1312.44 649.63 1348.92 649.63S1388.25 625.29 1425.18 625.29S1464.25 631.11 1501.44 631.11S1539.62 622.09 1577.7 622.09S1617.52 622.17 1653.96 622.17S1693.36 626.17 1730.22 626.17S1768.46 640.46 1806.47 640.46S1846.03 628.52 1882.73 628.52S1921.03 648.12 1958.99 648.12S1999.27 625.12 2035.25 625.12L2020 898 L-100 898 Z"></animate>
  <animateTransform attributeName="transform" type="translate" dur="15s" begin="-6s" repeatCount="indefinite" values="0;10;0" calcMode="spline" keySplines="0.3 0 0.7 1;0.3 0 0.7 1"></animateTransform>
</path><path d="M -100 644.5 C -60.0724 641.01 -58.9733 669.802 -21.48 669.802 S 18.958 645.055 57.04 645.055 S 98.3052 671.888 135.56 671.888 S 175.513 650.589 214.07 650.589 S 254.83 662.972 292.59 662.972 S 333.504 655.409 371.11 655.409 S 411.782 664.459 449.63 664.459 S 490.48 654.145 528.15 654.145 S 568.979 668.02 606.67 668.02 S 647.76 648.752 685.19 648.752 S 725.202 655.637 763.7 655.637 S 803.966 648.701 842.22 648.701 S 882.767 649.939 920.74 649.939 S 960.458 641.549 999.26 641.549 S 1039.77 666.753 1077.78 666.753 S 1118.83 647.008 1156.3 647.008 S 1195.91 672.522 1234.81 672.522 S 1275.57 645.538 1313.33 645.538 S 1353.06 667.984 1391.85 667.984 S 1431.57 646.912 1470.37 646.912 S 1509.89 665.469 1548.89 665.469 S 1590.18 646.819 1627.41 646.819 S 1667.85 663.357 1705.93 663.357 S 1746.89 636.986 1784.44 636.986 S 1824.67 673.164 1862.96 673.164 S 1902.53 651.295 1941.48 651.295 S 1981.47 645.809 2020 645.809 S 2061.43 657.385 2098.52 657.385 L 2020 898 L -100 898 Z" fill="#7e9193" stroke-width="0" transform="translate(0.452156 0)">
  <animate attributeName="d" dur="12.5s" repeatCount="indefinite" values="M-100 634.83C-60.31 652.08 -59.73 671.87 -21.48 671.87S19.53 642.23 57.04 642.23S98.49 669.53 135.56 669.53S176.12 651.9 214.07 651.9S254.98 668.12 292.59 668.12S333.02 655.33 371.11 655.33S412.46 657.34 449.63 657.34S490.19 656.09 528.15 656.09S567.95 659.37 606.67 659.37S646.51 652.14 685.19 652.14S724.92 663.16 763.7 663.16S804.45 648.93 842.22 648.93S882.82 664.81 920.74 664.81S961.18 641.54 999.26 641.54S1038.98 670.95 1077.78 670.95S1119.1 644.65 1156.3 644.65S1196.68 664.4 1234.81 664.4S1274.8 657.76 1313.33 657.76S1353.58 657.39 1391.85 657.39S1431.53 654.77 1470.37 654.77S1510.19 669.13 1548.89 669.13S1590.25 659.2 1627.41 659.2S1668.24 675.5 1705.93 675.5S1746.93 642.82 1784.44 642.82S1825.44 667.4 1862.96 667.4S1903.15 637.41 1941.48 637.41S1981.88 671.01 2020 671.01S2061.33 640.64 2098.52 640.64L2020 898 L-100 898 Z;M-100 645.82C-60.04 639.5 -58.87 669.52 -21.48 669.52S18.88 645.44 57.04 645.44S98.28 672.21 135.56 672.21S175.43 650.41 214.07 650.41S254.81 662.27 292.59 662.27S333.57 655.42 371.11 655.42S411.69 665.43 449.63 665.43S490.52 653.88 528.15 653.88S569.12 669.2 606.67 669.2S647.93 648.29 685.19 648.29S725.24 654.61 763.7 654.61S803.9 648.67 842.22 648.67S882.76 647.91 920.74 647.91S960.36 641.55 999.26 641.55S1039.88 666.18 1077.78 666.18S1118.79 647.33 1156.3 647.33S1195.8 673.63 1234.81 673.63S1275.67 643.87 1313.33 643.87S1352.99 669.43 1391.85 669.43S1431.58 645.84 1470.37 645.84S1509.85 664.97 1548.89 664.97S1590.17 645.13 1627.41 645.13S1667.8 661.7 1705.93 661.7S1746.88 636.19 1784.44 636.19S1824.56 673.95 1862.96 673.95S1902.45 653.19 1941.48 653.19S1981.41 642.37 2020 642.37S2061.44 659.67 2098.52 659.67L2020 898 L-100 898 Z;M-100 634.83C-60.31 652.08 -59.73 671.87 -21.48 671.87S19.53 642.23 57.04 642.23S98.49 669.53 135.56 669.53S176.12 651.9 214.07 651.9S254.98 668.12 292.59 668.12S333.02 655.33 371.11 655.33S412.46 657.34 449.63 657.34S490.19 656.09 528.15 656.09S567.95 659.37 606.67 659.37S646.51 652.14 685.19 652.14S724.92 663.16 763.7 663.16S804.45 648.93 842.22 648.93S882.82 664.81 920.74 664.81S961.18 641.54 999.26 641.54S1038.98 670.95 1077.78 670.95S1119.1 644.65 1156.3 644.65S1196.68 664.4 1234.81 664.4S1274.8 657.76 1313.33 657.76S1353.58 657.39 1391.85 657.39S1431.53 654.77 1470.37 654.77S1510.19 669.13 1548.89 669.13S1590.25 659.2 1627.41 659.2S1668.24 675.5 1705.93 675.5S1746.93 642.82 1784.44 642.82S1825.44 667.4 1862.96 667.4S1903.15 637.41 1941.48 637.41S1981.88 671.01 2020 671.01S2061.33 640.64 2098.52 640.64L2020 898 L-100 898 Z"></animate>
  <animateTransform attributeName="transform" type="translate" dur="12.5s" begin="-6.25s" repeatCount="indefinite" values="0;10;0" calcMode="spline" keySplines="0.3 0 0.7 1;0.3 0 0.7 1"></animateTransform>
</path><path d="M -100 675.232 C -57.9749 666.925 -57.368 703.377 -19.08 703.377 S 21.863 671.276 61.83 671.276 S 103.886 687.446 142.75 687.446 S 184.859 674.098 223.66 674.098 S 265.01 686.216 304.58 686.216 S 346.379 669.301 385.5 669.301 S 427.061 691.9 466.41 691.9 S 508.211 662.074 547.33 662.074 S 589.492 693.73 628.24 693.73 S 669.381 672.298 709.16 672.298 S 751.316 691.132 790.08 691.132 S 832.556 663.421 870.99 663.421 S 911.528 667.517 951.91 667.517 S 992.702 657.763 1032.82 657.763 S 1073.84 693.139 1113.74 693.139 S 1155.67 668.792 1194.66 668.792 S 1237.18 701.153 1275.57 701.153 S 1317.19 670.512 1356.49 670.512 S 1398.91 685.303 1437.4 685.303 S 1478.4 691.548 1518.32 691.548 S 1560.1 664.029 1599.24 664.029 S 1640.35 662.024 1680.15 662.024 S 1720.7 685.274 1761.07 685.274 S 1803.01 688.187 1841.98 688.187 S 1883.89 697.026 1922.9 697.026 S 1963.96 664.709 2003.82 664.709 S 2046.33 700.445 2084.73 700.445 L 2020 898 L -100 898 Z" fill="#95a6a7" stroke-width="0" transform="translate(7.7372 0)">
  <animate attributeName="d" dur="10s" repeatCount="indefinite" values="M-100 676.9C-57.85 666.7 -57.32 703.88 -19.08 703.88S21.91 671.31 61.83 671.31S103.96 686.31 142.75 686.31S184.89 674.42 223.66 674.42S264.87 686.34 304.58 686.34S346.38 669.8 385.5 669.8S427.11 694.37 466.41 694.37S508.15 662.3 547.33 662.3S589.53 694.23 628.24 694.23S669.26 669.87 709.16 669.87S751.32 690.93 790.08 690.93S832.58 663.66 870.99 663.66S911.5 665.02 951.91 665.02S992.62 656.65 1032.82 656.65S1073.75 695.48 1113.74 695.48S1155.65 668.87 1194.66 668.87S1237.34 702.82 1275.57 702.82S1317.18 671.64 1356.49 671.64S1399.11 684.17 1437.4 684.17S1478.4 695.11 1518.32 695.11S1560.11 661.72 1599.24 661.72S1640.26 661.29 1680.15 661.29S1720.71 684.75 1761.07 684.75S1803.08 691.47 1841.98 691.47S1884.02 696.76 1922.9 696.76S1963.82 665.1 2003.82 665.1S2046.5 704.15 2084.73 704.15L2020 898 L-100 898 Z;M-100 660.21C-59.1 668.95 -57.8 698.85 -19.08 698.85S21.44 670.97 61.83 670.97S103.22 697.68 142.75 697.68S184.58 671.2 223.66 671.2S266.27 685.1 304.58 685.1S346.37 664.81 385.5 664.81S426.62 669.65 466.41 669.65S508.76 660.04 547.33 660.04S589.15 689.23 628.24 689.23S670.47 694.17 709.16 694.17S751.28 692.95 790.08 692.95S832.34 661.27 870.99 661.27S911.78 690.01 951.91 690.01S993.44 667.79 1032.82 667.79S1074.61 672.05 1113.74 672.05S1155.88 668.09 1194.66 668.09S1235.69 686.14 1275.57 686.14S1317.25 660.35 1356.49 660.35S1397.06 695.51 1437.4 695.51S1478.39 659.46 1518.32 659.46S1559.98 684.83 1599.24 684.83S1641.16 668.64 1680.15 668.64S1720.64 689.99 1761.07 689.99S1802.35 658.61 1841.98 658.61S1882.68 699.42 1922.9 699.42S1965.25 661.19 2003.82 661.19S2044.79 667.07 2084.73 667.07L2020 898 L-100 898 Z;M-100 676.9C-57.85 666.7 -57.32 703.88 -19.08 703.88S21.91 671.31 61.83 671.31S103.96 686.31 142.75 686.31S184.89 674.42 223.66 674.42S264.87 686.34 304.58 686.34S346.38 669.8 385.5 669.8S427.11 694.37 466.41 694.37S508.15 662.3 547.33 662.3S589.53 694.23 628.24 694.23S669.26 669.87 709.16 669.87S751.32 690.93 790.08 690.93S832.58 663.66 870.99 663.66S911.5 665.02 951.91 665.02S992.62 656.65 1032.82 656.65S1073.75 695.48 1113.74 695.48S1155.65 668.87 1194.66 668.87S1237.34 702.82 1275.57 702.82S1317.18 671.64 1356.49 671.64S1399.11 684.17 1437.4 684.17S1478.4 695.11 1518.32 695.11S1560.11 661.72 1599.24 661.72S1640.26 661.29 1680.15 661.29S1720.71 684.75 1761.07 684.75S1803.08 691.47 1841.98 691.47S1884.02 696.76 1922.9 696.76S1963.82 665.1 2003.82 665.1S2046.5 704.15 2084.73 704.15L2020 898 L-100 898 Z"></animate>
  <animateTransform attributeName="transform" type="translate" dur="10s" begin="-6s" repeatCount="indefinite" values="0;10;0" calcMode="spline" keySplines="0.3 0 0.7 1;0.3 0 0.7 1"></animateTransform>
</path><path d="M -100 692.609 C -57.3874 678.427 -56.14 697.394 -16.54 697.394 S 25.6105 682.615 66.93 682.615 S 109.945 726.718 150.39 726.718 S 192.594 713.342 233.86 713.342 S 277.634 726.133 317.32 726.133 S 359.661 723.926 400.79 723.926 S 443.279 728.037 484.25 728.037 S 527.821 684.42 567.72 684.42 S 610.521 717.141 651.18 717.141 S 693.792 682.37 734.65 682.37 S 776.843 721.309 818.11 721.309 S 861.149 710.722 901.57 710.722 S 945.211 715.659 985.04 715.659 S 1027.15 687.997 1068.5 687.997 S 1112.08 719.445 1151.97 719.445 S 1195.48 693.491 1235.43 693.491 S 1278.11 717.271 1318.9 717.271 S 1362.5 685.454 1402.36 685.454 S 1446.02 713.505 1485.83 713.505 S 1527.75 709.385 1569.29 709.385 S 1611.39 722.186 1652.76 722.186 S 1695.13 696.936 1736.22 696.936 S 1778.53 714.819 1819.69 714.819 S 1863.23 688.073 1903.15 688.073 S 1946.56 717.197 1986.61 717.197 S 2029.85 689.49 2070.08 689.49 L 2020 898 L -100 898 Z" fill="#adbcbc" stroke-width="0" transform="translate(4.52596 0)">
  <animate attributeName="d" dur="7.5s" repeatCount="indefinite" values="M-100 693.48C-57.47 678.23 -56.12 694 -16.54 694S25.4 682.13 66.93 682.13S110.02 727.22 150.39 727.22S192.57 715.72 233.86 715.72S277.63 726.03 317.32 726.03S359.46 729.42 400.79 729.42S443.09 728.89 484.25 728.89S527.82 682.86 567.72 682.86S610.59 716.09 651.18 716.09S693.66 681.8 734.65 681.8S776.69 720.8 818.11 720.8S861.1 714.7 901.57 714.7S945.33 716.1 985.04 716.1S1026.96 688.87 1068.5 688.87S1112.35 720.18 1151.97 720.18S1195.72 694.29 1235.43 694.29S1278.09 715.15 1318.9 715.15S1362.55 685.86 1402.36 685.86S1446.08 711.06 1485.83 711.06S1527.76 711.63 1569.29 711.63S1611.27 726.52 1652.76 726.52S1695.16 697.53 1736.22 697.53S1778.35 717.03 1819.69 717.03S1863.5 688.73 1903.15 688.73S1946.59 721.62 1986.61 721.62S2029.8 690.7 2070.08 690.7L2020 898 L-100 898 Z;M-100 686.94C-56.85 679.71 -56.27 719.48 -16.54 719.48S26.98 685.77 66.93 685.77S109.46 723.45 150.39 723.45S192.75 697.87 233.86 697.87S277.66 726.8 317.32 726.8S360.97 688.18 400.79 688.18S444.51 722.49 484.25 722.49S527.83 694.57 567.72 694.57S610.07 723.98 651.18 723.98S694.65 686.08 734.65 686.08S777.84 724.62 818.11 724.62S861.47 684.84 901.57 684.84S944.44 712.79 985.04 712.79S1028.38 682.32 1068.5 682.32S1110.32 714.66 1151.97 714.66S1193.92 688.29 1235.43 688.29S1278.27 731.07 1318.9 731.07S1362.21 682.81 1402.36 682.81S1445.6 729.41 1485.83 729.41S1527.69 694.78 1569.29 694.78S1612.18 693.99 1652.76 693.99S1694.91 693.07 1736.22 693.07S1779.7 700.43 1819.69 700.43S1861.46 683.8 1903.15 683.8S1946.34 688.42 1986.61 688.42S2030.15 681.62 2070.08 681.62L2020 898 L-100 898 Z;M-100 693.48C-57.47 678.23 -56.12 694 -16.54 694S25.4 682.13 66.93 682.13S110.02 727.22 150.39 727.22S192.57 715.72 233.86 715.72S277.63 726.03 317.32 726.03S359.46 729.42 400.79 729.42S443.09 728.89 484.25 728.89S527.82 682.86 567.72 682.86S610.59 716.09 651.18 716.09S693.66 681.8 734.65 681.8S776.69 720.8 818.11 720.8S861.1 714.7 901.57 714.7S945.33 716.1 985.04 716.1S1026.96 688.87 1068.5 688.87S1112.35 720.18 1151.97 720.18S1195.72 694.29 1235.43 694.29S1278.09 715.15 1318.9 715.15S1362.55 685.86 1402.36 685.86S1446.08 711.06 1485.83 711.06S1527.76 711.63 1569.29 711.63S1611.27 726.52 1652.76 726.52S1695.16 697.53 1736.22 697.53S1778.35 717.03 1819.69 717.03S1863.5 688.73 1903.15 688.73S1946.59 721.62 1986.61 721.62S2029.8 690.7 2070.08 690.7L2020 898 L-100 898 Z"></animate>
  <animateTransform attributeName="transform" type="translate" dur="7.5s" begin="-5.25s" repeatCount="indefinite" values="0;10;0" calcMode="spline" keySplines="0.3 0 0.7 1;0.3 0 0.7 1"></animateTransform>
</path><path d="M -100 715.097 C -56.5802 708.039 -54.958 743.9 -13.82 743.9 S 29.9261 747.171 72.36 747.171 S 116.614 746.828 158.54 746.828 S 201.88 718.24 244.72 718.24 S 289.328 733.145 330.89 733.145 S 375.298 710.528 417.07 710.528 S 461.308 749.827 503.25 749.827 S 548.388 732.84 589.43 732.84 S 633.67 737.422 675.61 737.422 S 719.728 714.392 761.79 714.392 S 806.252 714.105 847.97 714.105 S 892.766 718.245 934.15 718.245 S 978.002 750.113 1020.33 750.113 S 1064.07 717.679 1106.5 717.679 S 1150.08 746.474 1192.68 746.474 S 1237.45 736.937 1278.86 736.937 S 1324.08 750.73 1365.04 750.73 S 1410.1 711.768 1451.22 711.768 S 1494.96 749.325 1537.4 749.325 S 1582.2 707.031 1623.58 707.031 S 1666.91 744.345 1709.76 744.345 S 1754.15 705.928 1795.93 705.928 S 1840.75 741.192 1882.11 741.192 S 1927.14 704.684 1968.29 704.684 S 2012.82 756.296 2054.47 756.296 L 2020 898 L -100 898 Z" fill="#c6d2d2" stroke-width="0" transform="translate(1.1357 0)">
  <animate attributeName="d" dur="5s" repeatCount="indefinite" values="M-100 713.71C-56.86 709.07 -54.93 741.35 -13.82 741.35S30.03 755.15 72.36 755.15S116.49 746.9 158.54 746.9S201.84 718.56 244.72 718.56S289.2 739.42 330.89 739.42S375.19 708.7 417.07 708.7S461.17 758.34 503.25 758.34S548.58 739.83 589.43 739.83S633.76 736.95 675.61 736.95S719.7 712.44 761.79 712.44S806.49 705.62 847.97 705.62S892.92 721.52 934.15 721.52S977.95 751.27 1020.33 751.27S1063.89 719.24 1106.5 719.24S1149.89 744.55 1192.68 744.55S1237.36 744.87 1278.86 744.87S1324.11 752.87 1365.04 752.87S1410.24 714.57 1451.22 714.57S1494.77 752.27 1537.4 752.27S1582.3 705.46 1623.58 705.46S1666.79 743.48 1709.76 743.48S1753.91 703.02 1795.93 703.02S1840.97 750.35 1882.11 750.35S1927.34 702.85 1968.29 702.85S2012.72 758.21 2054.47 758.21L2020 898 L-100 898 Z;M-100 720.65C-55.46 703.91 -55.07 754.11 -13.82 754.11S29.51 715.22 72.36 715.22S117.11 746.54 158.54 746.54S202.04 716.96 244.72 716.96S289.84 708.02 330.89 708.02S375.73 717.85 417.07 717.85S461.86 715.74 503.25 715.74S547.62 704.85 589.43 704.85S633.31 739.31 675.61 739.31S719.84 722.21 761.79 722.21S805.3 748.08 847.97 748.08S892.15 705.13 934.15 705.13S978.21 745.48 1020.33 745.48S1064.78 711.43 1106.5 711.43S1150.84 754.18 1192.68 754.18S1237.81 705.17 1278.86 705.17S1323.94 742.16 1365.04 742.16S1409.56 700.55 1451.22 700.55S1495.72 737.53 1537.4 737.53S1581.8 713.32 1623.58 713.32S1667.38 747.81 1709.76 747.81S1755.09 717.57 1795.93 717.57S1839.89 704.52 1882.11 704.52S1926.33 712.03 1968.29 712.03S2013.23 748.63 2054.47 748.63L2020 898 L-100 898 Z;M-100 713.71C-56.86 709.07 -54.93 741.35 -13.82 741.35S30.03 755.15 72.36 755.15S116.49 746.9 158.54 746.9S201.84 718.56 244.72 718.56S289.2 739.42 330.89 739.42S375.19 708.7 417.07 708.7S461.17 758.34 503.25 758.34S548.58 739.83 589.43 739.83S633.76 736.95 675.61 736.95S719.7 712.44 761.79 712.44S806.49 705.62 847.97 705.62S892.92 721.52 934.15 721.52S977.95 751.27 1020.33 751.27S1063.89 719.24 1106.5 719.24S1149.89 744.55 1192.68 744.55S1237.36 744.87 1278.86 744.87S1324.11 752.87 1365.04 752.87S1410.24 714.57 1451.22 714.57S1494.77 752.27 1537.4 752.27S1582.3 705.46 1623.58 705.46S1666.79 743.48 1709.76 743.48S1753.91 703.02 1795.93 703.02S1840.97 750.35 1882.11 750.35S1927.34 702.85 1968.29 702.85S2012.72 758.21 2054.47 758.21L2020 898 L-100 898 Z"></animate>
  <animateTransform attributeName="transform" type="translate" dur="5s" begin="-4s" repeatCount="indefinite" values="0;10;0" calcMode="spline" keySplines="0.3 0 0.7 1;0.3 0 0.7 1"></animateTransform>
</path><path d="M -100 729.467 C -53.5659 738.531 -54.2465 765.895 -10.92 765.895 S 34.9435 741.56 78.15 741.56 S 124.228 782.27 167.23 782.27 S 212.944 728.178 256.3 728.178 S 301.388 768.944 345.38 768.944 S 391.502 753.602 434.45 753.602 S 480.178 777.112 523.53 777.112 S 568.954 738.65 612.61 738.65 S 658.369 744.29 701.68 744.29 S 747.112 730.349 790.76 730.349 S 837.286 767.627 879.83 767.627 S 925.208 732.963 968.91 732.963 S 1014.53 777.804 1057.98 777.804 S 1104.25 728.459 1147.06 728.459 S 1192.46 779.447 1236.13 779.447 S 1281.32 736.362 1325.21 736.362 S 1371.16 775.082 1414.29 775.082 S 1460.2 728.57 1503.36 728.57 S 1549.45 771.706 1592.44 771.706 S 1637.76 736.525 1681.51 736.525 S 1726.94 769.785 1770.59 769.785 S 1817.01 732.002 1859.66 732.002 S 1904.91 764.35 1948.74 764.35 S 1994.85 733.896 2037.82 733.896 L 2020 898 L -100 898 Z" fill="#dfe8e8" stroke-width="0" transform="translate(1.13066 0)">
  <animate attributeName="d" dur="2.5s" repeatCount="indefinite" values="M-100 724.02C-53.49 735.29 -54.85 766.65 -10.92 766.65S34.4 742.08 78.15 742.08S124.3 782.03 167.23 782.03S212.62 728.59 256.3 728.59S301.42 770.89 345.38 770.89S391.99 734.19 434.45 734.19S480.55 776.82 523.53 776.82S568.71 742.81 612.61 742.81S659.1 727.84 701.68 727.84S747.28 731.32 790.76 731.32S837.43 768.73 879.83 768.73S924.96 736.5 968.91 736.5S1014.72 779.75 1057.98 779.75S1103.93 727.14 1147.06 727.14S1191.98 783.48 1236.13 783.48S1280.87 731.83 1325.21 731.83S1371.09 780.37 1414.29 780.37S1459.89 726.44 1503.36 726.44S1550.14 776.25 1592.44 776.25S1637.41 731.03 1681.51 731.03S1727.46 773.85 1770.59 773.85S1817.3 729.9 1859.66 729.9S1904.79 764.11 1948.74 764.11S1995.01 729.24 2037.82 729.24L2020 898 L-100 898 Z;M-100 737.65C-53.68 743.4 -53.34 764.76 -10.92 764.76S35.76 740.78 78.15 740.78S124.12 782.63 167.23 782.63S213.43 727.56 256.3 727.56S301.34 766.02 345.38 766.02S390.77 782.76 434.45 782.76S479.62 777.55 523.53 777.55S569.32 732.4 612.61 732.4S657.27 769 701.68 769S746.86 728.89 790.76 728.89S837.07 765.97 879.83 765.97S925.58 727.65 968.91 727.65S1014.24 774.88 1057.98 774.88S1104.74 730.44 1147.06 730.44S1193.19 773.39 1236.13 773.39S1281.99 743.17 1325.21 743.17S1371.26 767.14 1414.29 767.14S1460.66 731.77 1503.36 731.77S1548.41 764.88 1592.44 764.88S1638.29 744.78 1681.51 744.78S1726.15 763.68 1770.59 763.68S1816.57 735.16 1859.66 735.16S1905.09 764.71 1948.74 764.71S1994.6 740.89 2037.82 740.89L2020 898 L-100 898 Z;M-100 724.02C-53.49 735.29 -54.85 766.65 -10.92 766.65S34.4 742.08 78.15 742.08S124.3 782.03 167.23 782.03S212.62 728.59 256.3 728.59S301.42 770.89 345.38 770.89S391.99 734.19 434.45 734.19S480.55 776.82 523.53 776.82S568.71 742.81 612.61 742.81S659.1 727.84 701.68 727.84S747.28 731.32 790.76 731.32S837.43 768.73 879.83 768.73S924.96 736.5 968.91 736.5S1014.72 779.75 1057.98 779.75S1103.93 727.14 1147.06 727.14S1191.98 783.48 1236.13 783.48S1280.87 731.83 1325.21 731.83S1371.09 780.37 1414.29 780.37S1459.89 726.44 1503.36 726.44S1550.14 776.25 1592.44 776.25S1637.41 731.03 1681.51 731.03S1727.46 773.85 1770.59 773.85S1817.3 729.9 1859.66 729.9S1904.79 764.11 1948.74 764.11S1995.01 729.24 2037.82 729.24L2020 898 L-100 898 Z"></animate>
  <animateTransform attributeName="transform" type="translate" dur="2.5s" begin="-2.25s" repeatCount="indefinite" values="0;10;0" calcMode="spline" keySplines="0.3 0 0.7 1;0.3 0 0.7 1"></animateTransform>
</path></g>
</svg>